HIERARCHY
ROOT Hips
{
    OFFSET 0.000000 0.000000 0.000000
    CHANNELS 6 Xposition Yposition Zposition Zrotation Xrotation Yrotation
    JOINT Spine
    {
        OFFSET -0.000000 0.068295 0.000000
        CHANNELS 3 Zrotation Xrotation Yrotation
        JOINT Spine1
        {
            OFFSET -0.000000 0.198479 0.000000
            CHANNELS 3 Zrotation Xrotation Yrotation
            JOINT Neck
            {
                OFFSET -0.000000 0.215136 0.000000
                CHANNELS 3 Zrotation Xrotation Yrotation
                JOINT Head
                {
                    OFFSET -0.000000 0.090366 0.016657
                    CHANNELS 3 Zrotation Xrotation Yrotation
                    End Site
                    {
                        OFFSET -0.000000 0.166573 0.000000
                    }
                }
            }
            JOINT LeftShoulder
            {
                OFFSET 0.033522 0.175145 -0.001055
                CHANNELS 3 Zrotation Xrotation Yrotation
                JOINT LeftArm
                {
                    OFFSET 0.121214 0.000000 0.000000
                    CHANNELS 3 Zrotation Xrotation Yrotation
                    JOINT LeftForeArm
                    {
                        OFFSET 0.261115 0.000000 0.000000
                        CHANNELS 3 Zrotation Xrotation Yrotation
                        JOINT LeftHand
                        {
                            OFFSET 0.230096 0.000000 0.000000
                            CHANNELS 3 Zrotation Xrotation Yrotation
                            End Site
                            {
                                OFFSET 0.000000 -0.124930 0.000000
                            }
                        }
                    }
                }
            }
            JOINT RightShoulder
            {
                OFFSET -0.033103 0.175145 -0.001055
                CHANNELS 3 Zrotation Xrotation Yrotation
                JOINT RightArm
                {
                    OFFSET -0.121214 0.000000 0.000000
                    CHANNELS 3 Zrotation Xrotation Yrotation
                    JOINT RightForeArm
                    {
                        OFFSET -0.261115 0.000000 0.000000
                        CHANNELS 3 Zrotation Xrotation Yrotation
                        JOINT RightHand
                        {
                            OFFSET -0.230096 0.000000 0.000000
                            CHANNELS 3 Zrotation Xrotation Yrotation
                            End Site
                            {
                                OFFSET -0.000000 -0.124930 0.000000
                            }
                        }
                    }
                }
            }
        }
    }
    JOINT LeftUpLeg
    {
        OFFSET 0.083287 0.000000 0.000000
        CHANNELS 3 Zrotation Xrotation Yrotation
        JOINT LeftLeg
        {
            OFFSET -0.000000 -0.281128 0.000000
            CHANNELS 3 Zrotation Xrotation Yrotation
            JOINT LeftFoot
            {
                OFFSET -0.000000 -0.491911 0.000000
                CHANNELS 3 Zrotation Xrotation Yrotation
                JOINT LeftToeBase
                {
                    OFFSET -0.000000 -0.054136 0.124930
                    CHANNELS 3 Zrotation Xrotation Yrotation
                    End Site
                    {
                        OFFSET -0.000000 0.000000 0.033315
                    }
                }
            }
        }
    }
    JOINT RightUpLeg
    {
        OFFSET -0.083287 0.000000 0.000000
        CHANNELS 3 Zrotation Xrotation Yrotation
        JOINT RightLeg
        {
            OFFSET -0.000000 -0.281128 0.000000
            CHANNELS 3 Zrotation Xrotation Yrotation
            JOINT RightFoot
            {
                OFFSET -0.000000 -0.491911 0.000000
                CHANNELS 3 Zrotation Xrotation Yrotation
                JOINT RightToeBase
                {
                    OFFSET -0.000000 -0.054136 0.124930
                    CHANNELS 3 Zrotation Xrotation Yrotation
                    End Site
                    {
                        OFFSET -0.000000 0.000000 0.033315
                    }
                }
            }
        }
    }
}
MOTION
Frames:    11
Frame Time:    0.010000
0.095818    0.825080    0.010548    -1.835554    -0.198677    -92.619415    2.023949    -1.266605    1.127844    -5.698713    0.649176    0.400820    0.222604    -5.920787    -0.918492    -4.776571    1.210189    -0.264989    15.929974    -1.587461    -3.116407    -19.928038    4.001386    -5.949600    1.356081    5.001532    0.495082    94.133469    -0.100567    -4.992069    -13.140649    -3.357796    4.029547    16.642040    7.283540    1.303657    -1.155627    -1.167554    -6.610467    -92.082146    -2.797060    -1.285187    -0.862607    12.451858    -3.793658    1.055038    0.009078    0.818059    4.495226    0.105109    56.071236    0.000000    0.000000    0.000000    4.078750    10.534206    -9.870423    -1.026976    -0.349501    -8.400488    -4.349681    -10.067449    -40.575901    0.000000    0.000000    0.000000    
0.095764    0.825067    0.010403    -1.832182    -0.207697    -92.602226    2.004962    -1.297145    1.129031    -5.692754    0.676635    0.402392    0.109295    -6.139451    -0.743532    -4.515206    1.844920    -0.105432    15.926644    -1.617926    -3.122025    -19.916246    4.008729    -5.947235    1.321895    4.880371    0.435692    94.239014    0.213603    -4.883271    -13.147820    -3.383631    4.035021    16.648916    7.315832    1.314768    -1.167327    -1.196298    -6.614677    -92.012062    -2.864614    -1.314094    -0.869375    12.464318    -3.800425    1.075804    -0.009576    0.757485    4.488878    0.096683    56.100811    0.000000    0.000000    0.000000    4.079469    10.522523    -9.871553    -1.025744    -0.326364    -8.410944    -4.354561    -10.064038    -40.577644    0.000000    0.000000    0.000000    
0.095689    0.825067    0.010253    -1.838833    -0.204669    -92.592529    2.003556    -1.308893    1.133854    -5.697767    0.681109    0.404210    0.134950    -5.992687    -0.851548    -4.576350    1.699031    -0.211689    15.913534    -1.617824    -3.139829    -19.888861    4.044058    -5.933669    1.369306    4.998604    0.480895    94.135399    -0.113616    -4.988777    -13.150455    -3.401373    4.054737    16.657391    7.316195    1.296166    -1.145811    -1.175127    -6.589980    -92.039505    -2.841144    -1.291636    -0.862919    12.472757    -3.789251    1.090097    -0.003383    0.755210    4.478715    0.078351    56.072567    0.000000    0.000000    0.000000    4.092229    10.542330    -9.872265    -1.019420    -0.335238    -8.408404    -4.351773    -10.086989    -40.577129    0.000000    0.000000    0.000000    
0.095618    0.825040    0.010105    -1.838055    -0.206973    -92.579193    1.989379    -1.323863    1.133754    -5.688992    0.686570    0.404385    0.105419    -5.945122    -0.884856    -4.527780    1.739642    -0.253816    15.919771    -1.601446    -3.138492    -19.887749    4.077062    -5.950952    1.351517    4.860495    0.431016    94.226463    0.218226    -4.863488    -13.161004    -3.413786    4.065496    16.671309    7.327928    1.312317    -1.427936    -1.862955    -6.360553    -90.936058    -3.180993    -1.968238    -0.852784    12.467730    -3.784776    1.088886    0.009822    0.735054    4.490499    0.122387    56.106888    0.000000    0.000000    0.000000    4.105168    10.542013    -9.874830    -1.024487    -0.327036    -8.430362    -4.353552    -10.080920    -40.556892    0.000000    0.000000    0.000000    
0.095532    0.825020    0.009955    -1.846769    -0.208890    -92.558258    1.970907    -1.333933    1.131399    -5.671237    0.691532    0.403857    0.151414    -5.714572    -1.056417    -4.653982    1.389475    -0.422911    15.917826    -1.612776    -3.152946    -19.877626    4.071930    -5.932902    1.340747    4.875962    0.404462    94.259361    0.193342    -4.878438    -13.174696    -3.407147    4.074909    16.663372    7.240535    1.305353    -1.368588    -1.675991    -6.353850    -91.197853    -3.644291    -1.790023    -0.840216    12.460510    -3.786928    1.086216    0.034594    0.783489    4.489938    0.113813    56.068001    0.000000    0.000000    0.000000    4.110816    10.557616    -9.890428    -1.012937    -0.322663    -8.421925    -4.361560    -10.084673    -40.563072    0.000000    0.000000    0.000000    
0.095440    0.825005    0.009792    -1.854676    -0.210798    -92.551239    1.948391    -1.347475    1.135398    -5.642955    0.706262    0.405777    0.096761    -5.688135    -1.077179    -4.580375    1.449611    -0.456897    15.902185    -1.609557    -3.162077    -19.863281    4.100862    -5.926536    1.387578    4.985888    0.446236    94.131226    -0.100806    -4.976876    -13.195834    -3.409603    4.080205    16.673168    7.247120    1.320442    -1.378045    -1.710419    -6.329639    -91.120323    -3.466454    -1.820490    -0.830669    12.474120    -3.778018    1.089334    0.033149    0.783600    4.484106    0.086557    56.045574    0.000000    0.000000    0.000000    4.123003    10.578625    -9.884809    -1.013426    -0.331316    -8.420332    -4.363015    -10.108294    -40.565357    0.000000    0.000000    0.000000    
0.095355    0.824980    0.009643    -1.855566    -0.211616    -92.542221    1.935502    -1.357790    1.132581    -5.623488    0.700070    0.404335    0.044400    -5.650643    -1.089538    -4.532456    1.514695    -0.478224    15.880256    -1.603929    -3.172871    -19.846317    4.127001    -5.913328    1.400118    4.972718    0.450795    94.145721    -0.101168    -4.963580    -13.213719    -3.428873    4.093362    16.691412    7.277905    1.318997    -1.094880    -0.985667    -6.584294    -92.296593    -2.948716    -1.107740    -0.814256    12.479697    -3.797082    1.082083    0.040276    0.763576    4.483360    0.091367    56.065739    0.000000    0.000000    0.000000    4.132526    10.583359    -9.884134    -1.010673    -0.326301    -8.456118    -4.372092    -10.078809    -40.559589    0.000000    0.000000    0.000000    
0.095282    0.824977    0.009473    -1.862105    -0.214124    -92.525932    1.913492    -1.364918    1.138375    -5.604188    0.700645    0.406312    0.051508    -5.538614    -1.217382    -4.639211    1.521889    -0.594216    15.876677    -1.608999    -3.194280    -19.839016    4.122859    -5.902829    1.399457    4.961171    0.428721    94.179398    -0.042793    -4.954394    -13.217781    -3.432901    4.095848    16.701092    7.334943    1.329783    -1.107551    -0.980722    -6.642749    -92.302490    -2.968653    -1.104660    -0.802424    12.498978    -3.817844    1.082882    0.025142    0.789734    4.478286    0.074561    56.030777    0.000000    0.000000    0.000000    4.137315    10.607542    -9.882164    -0.999578    -0.340177    -8.463608    -4.377130    -10.116770    -40.548687    0.000000    0.000000    0.000000    
0.095206    0.824947    0.009320    -1.862841    -0.212569    -92.519150    1.900675    -1.377647    1.148518    -5.594321    0.708503    0.409847    0.051598    -5.495752    -1.262238    -4.652587    1.534034    -0.638146    15.875471    -1.600724    -3.199181    -19.825567    4.129045    -5.929848    1.399443    4.939346    0.453013    94.166489    -0.038962    -4.932423    -13.223717    -3.438518    4.088736    16.711378    7.359686    1.343688    -1.116766    -0.996478    -6.673555    -92.261780    -2.994838    -1.120748    -0.787883    12.505033    -3.818434    1.081287    0.022729    0.789940    4.480158    0.079775    56.040215    0.000000    0.000000    0.000000    4.152910    10.614072    -9.874857    -0.999487    -0.336129    -8.456848    -4.409341    -10.122416    -40.590256    0.000000    0.000000    0.000000    
0.095135    0.824930    0.009163    -1.859785    -0.208753    -92.500732    1.891540    -1.390371    1.141095    -5.586135    0.703932    0.407111    -0.036388    -5.643087    -1.133088    -4.463046    1.971346    -0.522406    15.884982    -1.588852    -3.193162    -19.828339    4.106282    -5.941032    1.398976    4.958383    0.452425    94.185532    -0.034984    -4.951604    -13.222333    -3.428446    4.093988    16.728083    7.458221    1.374684    -1.152793    -1.014535    -6.734827    -92.236427    -2.990820    -1.140694    -0.772465    12.503193    -3.834772    1.089443    0.028722    0.790946    4.480145    0.066771    56.038330    0.000000    0.000000    0.000000    4.214158    10.697790    -9.892681    -1.042089    -0.476326    -8.499141    -4.398783    -10.084877    -40.567959    0.000000    0.000000    0.000000    
0.095048    0.824941    0.009001    -1.861075    -0.204347    -92.482674    1.881841    -1.401707    1.134251    -5.575529    0.696102    0.404442    -0.054896    -5.570906    -1.164850    -4.459301    1.979448    -0.556946    15.879400    -1.572898    -3.206778    -19.818727    4.080281    -5.934763    1.404288    4.976192    0.448609    94.179955    -0.040109    -4.969247    -13.211492    -3.430680    4.102453    16.711170    7.434740    1.370739    -1.132989    -1.005956    -6.727609    -92.268967    -3.005852    -1.132102    -0.758222    12.511513    -3.832233    1.097386    0.023632    0.784323    4.474092    0.076561    56.035118    0.000000    0.000000    0.000000    4.237498    10.713835    -9.906514    -1.046424    -0.488728    -8.501413    -4.406247    -10.085672    -40.581570    0.000000    0.000000    0.000000    
